<?xml version="1.0" encoding="utf-8"?>
<!-- Generator: Adobe Illustrator 19.1.0, SVG Export Plug-In . SVG Version: 6.00 Build 0)  -->
<svg version="1.1" id="Layer_1" xmlns="http://www.w3.org/2000/svg" xmlns:xlink="http://www.w3.org/1999/xlink" x="0px" y="0px"
	 viewBox="0 0 119.55 119.55" style="enable-background:new 0 0 119.55 119.55;" xml:space="preserve">
<style type="text/css">
	.st0{fill:#EF4350;}
	.st1{fill:#FF3D4D;}
	.st2{fill:#FFFFFF;}
</style>
<g>
	<g>
		<path id="XMLID_361_" class="st0" d="M59.78,22.35c-20.64,0-37.43,16.79-37.43,37.43c0,20.64,16.79,37.43,37.43,37.43
			c20.64,0,37.43-16.79,37.43-37.43C97.2,39.14,80.41,22.35,59.78,22.35"/>
		<path id="XMLID_360_" class="st1" d="M59.78,22.35c20.64,0,37.43,16.79,37.43,37.43c0,20.64-16.79,37.43-37.43,37.43
			c-20.64,0-37.43-16.79-37.43-37.43C22.35,39.14,39.14,22.35,59.78,22.35"/>
		<polygon id="XMLID_359_" class="st2" points="51.37,44.83 49.5,44.83 49.5,58.84 35.49,58.84 35.49,60.71 49.5,60.71 49.5,74.72 
			51.37,74.72 51.37,60.71 65.38,60.71 65.38,58.84 51.37,58.84 		"/>
		<rect id="XMLID_358_" x="68.18" y="44.83" class="st2" width="1.87" height="29.88"/>
	</g>
</g>
</svg>
