<?xml version="1.0" encoding="utf-8"?>
<!-- Generator: Adobe Illustrator 19.1.0, SVG Export Plug-In . SVG Version: 6.00 Build 0)  -->
<svg version="1.1" id="Layer_1" xmlns="http://www.w3.org/2000/svg" xmlns:xlink="http://www.w3.org/1999/xlink" x="0px" y="0px"
	 viewBox="0 0 119.55 119.55" style="enable-background:new 0 0 119.55 119.55;" xml:space="preserve">
<style type="text/css">
	.st0{fill:#FFFFFF;}
</style>
<g>
	<g>
		<polygon id="XMLID_588_" class="st0" points="51.37,44.83 49.5,44.83 49.5,58.84 35.49,58.84 35.49,60.71 49.5,60.71 49.5,74.72 
			51.37,74.72 51.37,60.71 65.38,60.71 65.38,58.84 51.37,58.84 		"/>
		<rect id="XMLID_587_" x="68.18" y="44.83" class="st0" width="1.87" height="29.88"/>
		<path class="st0" d="M59.78,98.25c-21.22,0-38.48-17.26-38.48-38.48c0-21.22,17.26-38.48,38.48-38.48
			c21.22,0,38.48,17.26,38.48,38.48C98.25,80.99,80.99,98.25,59.78,98.25z M59.78,23.4c-20.06,0-36.38,16.32-36.38,36.38
			s16.32,36.38,36.38,36.38s36.38-16.32,36.38-36.38S79.83,23.4,59.78,23.4z"/>
	</g>
</g>
</svg>
