<?xml version="1.0" encoding="utf-8"?>
<!-- Generator: Adobe Illustrator 19.1.0, SVG Export Plug-In . SVG Version: 6.00 Build 0)  -->
<svg version="1.1" id="Layer_1" xmlns="http://www.w3.org/2000/svg" xmlns:xlink="http://www.w3.org/1999/xlink" x="0px" y="0px"
	 viewBox="0 0 178.85 38.42" style="enable-background:new 0 0 178.85 38.42;" xml:space="preserve">
<style type="text/css">
	.st0{fill:#FFFFFF;stroke:#FFFFFF;stroke-width:0.25;stroke-miterlimit:10;}
	.st1{fill:#FFFFFF;}
</style>
<g>
	<g>
		<path class="st0" d="M19.73,37.08c-9.86,0-17.88-8.02-17.88-17.88c0-9.86,8.02-17.88,17.88-17.88c9.86,0,17.88,8.02,17.88,17.88
			C37.61,29.06,29.59,37.08,19.73,37.08z M19.73,2.31c-9.32,0-16.9,7.58-16.9,16.9s7.58,16.9,16.9,16.9s16.9-7.58,16.9-16.9
			S29.05,2.31,19.73,2.31z"/>
	</g>
	<g>
		<polygon id="XMLID_223_" class="st1" points="15.83,12.27 14.96,12.27 14.96,18.77 8.45,18.77 8.45,19.64 14.96,19.64 
			14.96,26.15 15.83,26.15 15.83,19.64 22.33,19.64 22.33,18.77 15.83,18.77 		"/>
		<path class="st1" d="M16.08,26.41H14.7V19.9H8.19v-1.38h6.51v-6.51h1.38v6.51h6.51v1.38h-6.51V26.41z M15.21,25.89h0.36v-6.51
			h6.51v-0.36h-6.51v-6.51h-0.36v6.51H8.71v0.36h6.51V25.89z"/>
	</g>
	<g>
		<rect id="XMLID_222_" x="24.15" y="12.27" class="st1" width="0.87" height="13.88"/>
		<path class="st1" d="M25.28,26.41h-1.38v-14.4h1.38V26.41z M24.41,25.89h0.36V12.52h-0.36V25.89z"/>
	</g>
	<polygon id="XMLID_221_" class="st1" points="56.64,27.59 56.64,18.93 45.33,18.93 45.33,27.59 43.96,27.59 43.96,8.53 45.33,8.53 
		45.33,17.6 56.64,17.6 56.64,8.53 58.01,8.53 58.01,27.59 	"/>
	<path id="XMLID_23_" class="st1" d="M73.68,20.32c-0.03-3.32-2.05-5.17-5.07-5.17c-2.59,0-4.82,1.88-5.1,5.17H73.68z M62.24,20.87
		c0-4.03,2.84-6.94,6.37-6.94c3.53,0,6.67,2.31,6.19,7.57H63.51c0.25,3.16,2.51,4.98,5.1,4.98c1.65,0,3.58-0.71,4.51-2.04l0.89,0.76
		c-1.22,1.72-3.4,2.59-5.4,2.59C65.08,27.79,62.24,25.14,62.24,20.87"/>
	<path id="XMLID_20_" class="st1" d="M79.84,20.87c0,3.38,2.28,5.64,5.12,5.64c6.98,0,6.98-11.25,0-11.25
		C82.12,15.26,79.84,17.49,79.84,20.87 M91.33,19.61v7.98h-1.24v-2.86c-1.22,2.1-3.09,3.08-5.12,3.08c-3.5,0-6.37-2.83-6.37-6.94
		c0-4.11,2.87-6.89,6.37-6.89C90.78,13.98,91.33,19.61,91.33,19.61"/>
	<rect id="XMLID_19_" x="95.97" y="8.53" class="st1" width="1.24" height="19.06"/>
	<path id="XMLID_18_" class="st1" d="M104.82,10.09v4.06h4.26v1.11h-4.26v8.2c0,1.82,0.35,3.1,2.31,3.1c0.61,0,1.29-0.22,1.93-0.54
		l0.43,1.09c-0.78,0.41-1.57,0.68-2.36,0.68c-2.66,0-3.52-1.69-3.52-4.33v-8.2h-2.66v-1.11h2.66v-3.92L104.82,10.09z"/>
	<path id="XMLID_17_" class="st1" d="M114.41,8.53v8.11c1.01-1.93,2.76-2.67,4.51-2.69c3.5,0,5.25,2.42,5.25,5.94v7.71h-1.22v-7.71
		c0-2.78-1.22-4.66-4.03-4.66c-2.64,0-4.46,2.18-4.46,4.98v7.38h-1.24V8.53H114.41z"/>
	<path id="XMLID_14_" class="st1" d="M128.68,27.59h1.24V14.09h-1.24V27.59z M130.33,9.76c0,1.42-2,1.42-2,0
		C128.33,8.34,130.33,8.34,130.33,9.76"/>
	<path id="XMLID_13_" class="st1" d="M145.01,25.72c-1.27,1.36-2.92,2.02-4.56,2.02c-3.53,0-6.44-2.62-6.44-6.86
		c0-4.25,2.82-6.86,6.44-6.86c1.65,0,3.3,0.68,4.56,2.01l-0.81,0.84c-1.01-1.09-2.41-1.61-3.75-1.61c-2.84,0-5.23,1.99-5.23,5.61
		c0,3.62,2.38,5.61,5.23,5.61c1.34,0,2.71-0.57,3.73-1.66L145.01,25.72z"/>
	<path id="XMLID_10_" class="st1" d="M148.82,27.59h1.24V14.09h-1.24V27.59z M150.47,9.76c0,1.42-2,1.42-2,0
		C148.46,8.34,150.47,8.34,150.47,9.76"/>
	<path id="XMLID_9_" class="st1" d="M157.74,10.09v4.06h4.26v1.11h-4.26v8.2c0,1.82,0.36,3.1,2.31,3.1c0.61,0,1.29-0.22,1.93-0.54
		l0.43,1.09c-0.79,0.41-1.57,0.68-2.36,0.68c-2.66,0-3.53-1.69-3.53-4.33v-8.2h-2.66v-1.11h2.66v-3.92L157.74,10.09z"/>
	<polygon id="XMLID_7_" class="st1" points="177.12,14.14 169.49,33.21 168.17,33.21 170.48,27.43 165.45,14.14 166.8,14.14 
		169.72,22.1 171.18,25.99 172.63,22.07 175.78,14.14 	"/>
</g>
</svg>
