<?xml version="1.0" encoding="utf-8"?>
<!-- Generator: Adobe Illustrator 19.1.0, SVG Export Plug-In . SVG Version: 6.00 Build 0)  -->
<svg version="1.1" id="Layer_1" xmlns="http://www.w3.org/2000/svg" xmlns:xlink="http://www.w3.org/1999/xlink" x="0px" y="0px"
	 viewBox="0 0 157.59 70.89" style="enable-background:new 0 0 157.59 70.89;" xml:space="preserve">
<style type="text/css">
	.st0{fill:#00BCD4;}
	.st1{fill:#FFFFFF;}
	.st2{fill:#969696;}
</style>
<g>
	<path id="XMLID_447_" class="st0" d="M24.2,17.5c-9.9,0-17.95,8.05-17.95,17.95c0,9.9,8.05,17.95,17.95,17.95
		c9.9,0,17.95-8.05,17.95-17.95C42.14,25.55,34.09,17.5,24.2,17.5"/>
	<polygon id="XMLID_446_" class="st1" points="20.38,28.66 19.53,28.66 19.53,35.02 13.16,35.02 13.16,35.87 19.53,35.87 
		19.53,42.23 20.38,42.23 20.38,35.87 26.74,35.87 26.74,35.02 20.38,35.02 	"/>
	<rect id="XMLID_445_" x="28.02" y="28.66" class="st1" width="0.85" height="13.58"/>
	<polygon id="XMLID_444_" class="st2" points="52.14,25.66 52.14,23.67 49.54,23.67 49.54,25.66 49.23,25.66 49.23,21.28 
		49.54,21.28 49.54,23.36 52.14,23.36 52.14,21.28 52.45,21.28 52.45,25.66 	"/>
	<path id="XMLID_441_" class="st2" d="M56.05,23.99c-0.01-0.76-0.47-1.19-1.16-1.19c-0.59,0-1.11,0.43-1.17,1.19H56.05z
		 M53.42,24.11c0-0.92,0.65-1.59,1.46-1.59c0.81,0,1.53,0.53,1.42,1.74h-2.59c0.06,0.73,0.58,1.14,1.17,1.14
		c0.38,0,0.82-0.16,1.04-0.47l0.2,0.18c-0.28,0.39-0.78,0.59-1.24,0.59C54.08,25.7,53.42,25.09,53.42,24.11"/>
	<path id="XMLID_438_" class="st2" d="M57.46,24.11c0,0.78,0.52,1.29,1.18,1.29c1.6,0,1.6-2.58,0-2.58
		C57.99,22.82,57.46,23.34,57.46,24.11 M60.1,23.82v1.83h-0.29V25c-0.28,0.48-0.71,0.71-1.18,0.71c-0.8,0-1.46-0.65-1.46-1.59
		c0-0.94,0.66-1.58,1.46-1.58C59.97,22.53,60.1,23.82,60.1,23.82"/>
	<rect id="XMLID_437_" x="61.16" y="21.28" class="st2" width="0.29" height="4.37"/>
	<path id="XMLID_436_" class="st2" d="M63.2,21.64v0.93h0.98v0.26H63.2v1.88c0,0.42,0.08,0.71,0.53,0.71c0.14,0,0.3-0.05,0.44-0.13
		l0.1,0.25c-0.18,0.09-0.36,0.16-0.54,0.16c-0.61,0-0.81-0.39-0.81-0.99v-1.88h-0.61v-0.26h0.61v-0.9L63.2,21.64z"/>
	<path id="XMLID_435_" class="st2" d="M65.4,21.28v1.86c0.23-0.44,0.63-0.61,1.04-0.62c0.8,0,1.21,0.56,1.21,1.36v1.77h-0.28v-1.77
		c0-0.64-0.28-1.07-0.93-1.07c-0.61,0-1.02,0.5-1.02,1.14v1.69h-0.29v-4.37H65.4z"/>
	<path id="XMLID_432_" class="st2" d="M68.67,25.66h0.29v-3.1h-0.29V25.66z M69.05,21.56c0,0.32-0.46,0.32-0.46,0
		C68.59,21.24,69.05,21.24,69.05,21.56"/>
	<path id="XMLID_431_" class="st2" d="M72.42,25.22c-0.29,0.31-0.67,0.46-1.05,0.46c-0.81,0-1.48-0.6-1.48-1.58s0.65-1.57,1.48-1.57
		c0.38,0,0.76,0.16,1.05,0.46l-0.19,0.19c-0.23-0.25-0.55-0.37-0.86-0.37c-0.65,0-1.2,0.46-1.2,1.29s0.55,1.29,1.2,1.29
		c0.31,0,0.62-0.13,0.86-0.38L72.42,25.22z"/>
	<path id="XMLID_428_" class="st2" d="M73.29,25.66h0.29v-3.1h-0.29V25.66z M73.67,21.56c0,0.32-0.46,0.32-0.46,0
		C73.21,21.24,73.67,21.24,73.67,21.56"/>
	<path id="XMLID_427_" class="st2" d="M75.34,21.64v0.93h0.98v0.26h-0.98v1.88c0,0.42,0.08,0.71,0.53,0.71
		c0.14,0,0.3-0.05,0.44-0.13l0.1,0.25c-0.18,0.09-0.36,0.16-0.54,0.16c-0.61,0-0.81-0.39-0.81-0.99v-1.88h-0.61v-0.26h0.61v-0.9
		L75.34,21.64z"/>
	<polygon id="XMLID_426_" class="st2" points="79.79,22.57 78.04,26.94 77.73,26.94 78.26,25.62 77.11,22.57 77.42,22.57 
		78.09,24.39 78.43,25.29 78.76,24.39 79.48,22.57 	"/>
	<path id="XMLID_425_" class="st0" d="M60.84,40.1c-1.32,1.32-3.08,1.98-4.82,1.98c-4.46,0-6.78-3.12-6.8-6.69
		c-0.04-3.53,2.27-6.84,6.8-6.84c1.74,0,3.49,0.66,4.82,1.98l-0.7,0.6c-1.13-1.13-2.63-1.68-4.12-1.68c-3.85,0-5.84,2.72-5.82,5.89
		c0.04,3.1,2,5.78,5.82,5.78c1.49,0,3-0.57,4.14-1.68L60.84,40.1z"/>
	<path id="XMLID_422_" class="st0" d="M70.78,37.3c0-2.42-1.72-3.99-3.83-3.99c-2.12,0-3.83,1.57-3.83,3.99
		c0,2.42,1.72,3.87,3.83,3.87C69.06,41.17,70.78,39.72,70.78,37.3 M62.2,37.3c0-2.97,2.12-4.85,4.74-4.85
		c2.63,0,4.74,1.89,4.74,4.85c0,2.97-2.12,4.78-4.74,4.78C64.32,42.08,62.2,40.27,62.2,37.3"/>
	<path id="XMLID_421_" class="st0" d="M87.72,41.93v-5.59c0-1.79-1.21-3.06-2.98-3.06s-3,1.32-3,3.12v5.53h-0.93v-5.53
		c0-1.79-1.23-3.1-3-3.1c-1.78,0-2.98,1.3-2.98,3.1v5.53h-0.93V32.6h0.87l0.02,1.55c0.64-1.23,1.83-1.74,3.04-1.74
		c1.42,0,2.91,0.64,3.46,2.3c0.57-1.53,2.02-2.3,3.46-2.3c2.29,0,3.91,1.61,3.91,3.93v5.59H87.72z"/>
	<path id="XMLID_418_" class="st0" d="M99.91,37.26c0-2.63-1.7-3.91-3.82-3.91c-2.17,0-3.78,1.64-3.78,3.93
		c0,2.28,1.64,3.93,3.78,3.93C98.21,41.21,99.91,39.89,99.91,37.26 M91.36,46.44V32.6h0.91v2.21c0.74-1.42,2.23-2.34,4.04-2.34
		c2.53,0.09,4.53,1.79,4.53,4.8c0,3.14-2.12,4.84-4.74,4.84c-1.59,0-3.06-0.78-3.85-2.32v6.67H91.36z"/>
	<rect id="XMLID_417_" x="103.15" y="28.71" class="st0" width="0.93" height="13.22"/>
	<path id="XMLID_414_" class="st0" d="M106.88,41.93h0.93v-9.37h-0.93V41.93z M108.11,29.56c0,0.98-1.49,0.98-1.49,0
		C106.61,28.57,108.11,28.57,108.11,29.56"/>
	<path id="XMLID_413_" class="st0" d="M123.1,32.6v1.66c0.72-1.28,2.02-1.81,3.32-1.83c2.49,0,4.21,1.53,4.21,4.12v5.38h-0.93v-5.36
		c0-2.11-1.3-3.25-3.32-3.23c-1.93,0.02-3.27,1.47-3.27,3.4v5.19h-0.93V32.6H123.1z"/>
	<path id="XMLID_412_" class="st0" d="M140.92,40.68c-0.94,0.94-2.17,1.4-3.4,1.4c-2.63,0-4.8-1.87-4.8-4.82
		c0-2.95,2.1-4.82,4.8-4.82c1.23,0,2.46,0.47,3.4,1.4l-0.59,0.59c-0.76-0.76-1.81-1.12-2.81-1.12c-2.12,0-3.89,1.44-3.89,3.95
		c0,2.51,1.78,3.95,3.89,3.95c1,0,2.02-0.4,2.78-1.15L140.92,40.68z"/>
	<path id="XMLID_409_" class="st0" d="M150.47,36.89c-0.02-2.3-1.53-3.59-3.78-3.59c-1.93,0-3.59,1.3-3.8,3.59H150.47z
		 M141.96,37.26c0-2.8,2.12-4.82,4.74-4.82c2.63,0,4.97,1.61,4.61,5.25h-8.41c0.19,2.19,1.87,3.48,3.8,3.48
		c1.23,0,2.66-0.49,3.36-1.42l0.66,0.53c-0.91,1.19-2.53,1.79-4.02,1.79C144.07,42.08,141.96,40.23,141.96,37.26"/>
	<path id="XMLID_309_" class="st0" d="M111.41,37.24c0,2.35,1.59,3.93,3.57,3.93c4.86,0,4.86-7.83,0-7.83
		C113,33.34,111.41,34.89,111.41,37.24 M119.41,36.37v5.56h-0.87v-1.99c-0.85,1.46-2.15,2.14-3.57,2.14c-2.44,0-4.43-1.97-4.43-4.84
		c0-2.86,2-4.8,4.43-4.8C119.02,32.45,119.41,36.37,119.41,36.37"/>
</g>
</svg>
