<?xml version="1.0" encoding="utf-8"?>
<!-- Generator: Adobe Illustrator 19.1.0, SVG Export Plug-In . SVG Version: 6.00 Build 0)  -->
<svg version="1.1" id="Layer_1" xmlns="http://www.w3.org/2000/svg" xmlns:xlink="http://www.w3.org/1999/xlink" x="0px" y="0px"
	 viewBox="0 0 157.59 70.89" style="enable-background:new 0 0 157.59 70.89;" xml:space="preserve">
<style type="text/css">
	.st0{fill:#FFFFFF;}
</style>
<g>
	<path id="XMLID_733_" class="st0" d="M35.75,17.5c-9.9,0-17.95,8.05-17.95,17.95c0,9.9,8.05,17.95,17.95,17.95
		c9.9,0,17.95-8.05,17.95-17.95C53.69,25.55,45.64,17.5,35.75,17.5 M35.75,18.44c9.37,0,17,7.63,17,17c0,9.37-7.63,17-17,17
		c-9.37,0-17-7.63-17-17C18.74,26.07,26.37,18.44,35.75,18.44"/>
	<polygon id="XMLID_732_" class="st0" points="31.93,28.66 31.08,28.66 31.08,35.02 24.71,35.02 24.71,35.87 31.08,35.87 
		31.08,42.23 31.93,42.23 31.93,35.87 38.29,35.87 38.29,35.02 31.93,35.02 	"/>
	<rect id="XMLID_731_" x="39.56" y="28.66" class="st0" width="0.85" height="13.58"/>
	<polygon id="XMLID_730_" class="st0" points="63.69,25.66 63.69,23.67 61.09,23.67 61.09,25.66 60.78,25.66 60.78,21.28 
		61.09,21.28 61.09,23.36 63.69,23.36 63.69,21.28 64,21.28 64,25.66 	"/>
	<path id="XMLID_726_" class="st0" d="M67.6,23.99c-0.01-0.76-0.47-1.19-1.16-1.19c-0.59,0-1.11,0.43-1.17,1.19H67.6z M64.97,24.11
		c0-0.92,0.65-1.59,1.46-1.59c0.81,0,1.53,0.53,1.42,1.74h-2.59c0.06,0.73,0.58,1.14,1.17,1.14c0.38,0,0.82-0.16,1.04-0.47l0.2,0.18
		c-0.28,0.39-0.78,0.59-1.24,0.59C65.62,25.7,64.97,25.09,64.97,24.11"/>
	<path id="XMLID_723_" class="st0" d="M69.01,24.11c0,0.78,0.52,1.29,1.18,1.29c1.6,0,1.6-2.58,0-2.58
		C69.54,22.82,69.01,23.34,69.01,24.11 M71.65,23.82v1.83h-0.29V25c-0.28,0.48-0.71,0.71-1.18,0.71c-0.8,0-1.46-0.65-1.46-1.59
		c0-0.94,0.66-1.58,1.46-1.58C71.52,22.53,71.65,23.82,71.65,23.82"/>
	<rect id="XMLID_721_" x="72.71" y="21.28" class="st0" width="0.29" height="4.37"/>
	<path id="XMLID_720_" class="st0" d="M74.74,21.64v0.93h0.98v0.26h-0.98v1.88c0,0.42,0.08,0.71,0.53,0.71
		c0.14,0,0.3-0.05,0.44-0.12l0.1,0.25c-0.18,0.09-0.36,0.16-0.54,0.16c-0.61,0-0.81-0.39-0.81-0.99v-1.88h-0.61v-0.26h0.61v-0.9
		L74.74,21.64z"/>
	<path id="XMLID_719_" class="st0" d="M76.94,21.28v1.86c0.23-0.44,0.63-0.61,1.04-0.62c0.8,0,1.21,0.56,1.21,1.36v1.77h-0.28v-1.77
		c0-0.64-0.28-1.07-0.93-1.07c-0.61,0-1.02,0.5-1.02,1.14v1.69h-0.29v-4.37H76.94z"/>
	<path id="XMLID_716_" class="st0" d="M80.22,25.66h0.29v-3.1h-0.29V25.66z M80.6,21.56c0,0.32-0.46,0.32-0.46,0
		C80.14,21.24,80.6,21.24,80.6,21.56"/>
	<path id="XMLID_715_" class="st0" d="M83.97,25.22c-0.29,0.31-0.67,0.46-1.05,0.46c-0.81,0-1.48-0.6-1.48-1.57
		c0-0.97,0.65-1.57,1.48-1.57c0.38,0,0.76,0.16,1.05,0.46l-0.19,0.19c-0.23-0.25-0.55-0.37-0.86-0.37c-0.65,0-1.2,0.46-1.2,1.29
		c0,0.83,0.55,1.29,1.2,1.29c0.31,0,0.62-0.13,0.86-0.38L83.97,25.22z"/>
	<path id="XMLID_712_" class="st0" d="M84.84,25.66h0.29v-3.1h-0.29V25.66z M85.22,21.56c0,0.32-0.46,0.32-0.46,0
		C84.76,21.24,85.22,21.24,85.22,21.56"/>
	<path id="XMLID_711_" class="st0" d="M86.89,21.64v0.93h0.98v0.26h-0.98v1.88c0,0.42,0.08,0.71,0.53,0.71
		c0.14,0,0.3-0.05,0.44-0.12l0.1,0.25c-0.18,0.09-0.36,0.16-0.54,0.16c-0.61,0-0.81-0.39-0.81-0.99v-1.88H86v-0.26h0.61v-0.9
		L86.89,21.64z"/>
	<polygon id="XMLID_710_" class="st0" points="91.34,22.57 89.59,26.94 89.28,26.94 89.81,25.62 88.66,22.57 88.97,22.57 
		89.64,24.39 89.98,25.29 90.31,24.39 91.03,22.57 	"/>
	<path id="XMLID_707_" class="st0" d="M70.81,37.58l-3.55-8.05l-3.55,8.05H70.81z M72.66,41.78l-1.45-3.25h-7.9l-1.44,3.25h-1.1
		l5.93-13.22h1.11l5.93,13.22H72.66z"/>
	<path id="XMLID_706_" class="st0" d="M76.46,32.45v1.66c0.72-1.28,2.02-1.81,3.32-1.83c2.49,0,4.21,1.53,4.21,4.12v5.38h-0.93
		v-5.36c0-2.11-1.3-3.25-3.32-3.23c-1.93,0.02-3.27,1.47-3.27,3.4v5.19h-0.93v-9.33H76.46z"/>
	<rect id="XMLID_705_" x="98.4" y="28.56" class="st0" width="0.93" height="13.22"/>
	<polygon id="XMLID_704_" class="st0" points="109.91,32.45 103.97,46.29 102.99,46.29 104.96,41.66 101.22,32.45 102.22,32.45 
		104.39,37.96 105.49,40.66 106.56,37.94 108.9,32.45 	"/>
	<path id="XMLID_702_" class="st0" d="M114.18,29.63v2.81h3.17v0.77h-3.17v5.69c0,1.27,0.26,2.15,1.72,2.15
		c0.45,0,0.96-0.15,1.44-0.38l0.32,0.76c-0.59,0.28-1.17,0.47-1.76,0.47c-1.98,0-2.62-1.17-2.62-3v-5.69h-1.98v-0.77h1.98v-2.72
		L114.18,29.63z"/>
	<path id="XMLID_699_" class="st0" d="M119.2,41.78h0.93v-9.37h-0.93V41.78z M120.43,29.41c0,0.98-1.49,0.98-1.49,0
		C118.94,28.42,120.43,28.42,120.43,29.41"/>
	<path id="XMLID_698_" class="st0" d="M130.45,40.53c-0.94,0.94-2.17,1.4-3.4,1.4c-2.63,0-4.8-1.87-4.8-4.82
		c0-2.95,2.1-4.82,4.8-4.82c1.23,0,2.46,0.47,3.4,1.4l-0.59,0.59c-0.76-0.76-1.81-1.12-2.81-1.12c-2.12,0-3.89,1.44-3.89,3.95
		c0,2.51,1.78,3.95,3.89,3.95c1,0,2.02-0.4,2.78-1.15L130.45,40.53z"/>
	<path id="XMLID_697_" class="st0" d="M138.83,34.15c-0.94-0.83-1.87-0.98-2.91-0.98c-1.45-0.02-2.85,0.53-2.81,1.72
		c0.04,1.25,1.66,1.49,2.83,1.7c1.66,0.28,3.95,0.57,3.85,2.74c-0.06,2.06-2.19,2.61-3.83,2.61c-1.64,0-3.27-0.62-4.08-1.87
		l0.68-0.6c0.78,1.11,2.17,1.59,3.42,1.59c1.13,0,2.85-0.3,2.91-1.78c0.04-1.34-1.51-1.61-3.04-1.85c-1.81-0.3-3.61-0.64-3.63-2.51
		c-0.02-1.83,1.81-2.63,3.7-2.61c1.36,0,2.55,0.38,3.48,1.25L138.83,34.15z"/>
	<path id="XMLID_631_" class="st0" d="M87.51,37.16c0,2.37,1.6,3.95,3.59,3.95c4.89,0,4.89-7.88,0-7.88
		C89.11,33.23,87.51,34.8,87.51,37.16 M95.57,36.28v5.59h-0.87v-2c-0.85,1.47-2.17,2.16-3.59,2.16c-2.45,0-4.46-1.98-4.46-4.87
		c0-2.88,2.01-4.83,4.46-4.83C95.18,32.33,95.57,36.28,95.57,36.28"/>
</g>
</svg>
