<?xml version="1.0" encoding="utf-8"?>
<!-- Generator: Adobe Illustrator 19.1.0, SVG Export Plug-In . SVG Version: 6.00 Build 0)  -->
<svg version="1.1" id="Layer_1" xmlns="http://www.w3.org/2000/svg" xmlns:xlink="http://www.w3.org/1999/xlink" x="0px" y="0px"
	 viewBox="0 0 157.59 70.89" style="enable-background:new 0 0 157.59 70.89;" xml:space="preserve">
<style type="text/css">
	.st0{fill:#9C27B0;}
	.st1{fill:#FFFFFF;}
	.st2{fill:#969696;}
</style>
<g>
	<path id="XMLID_518_" class="st0" d="M41.49,17.5c-9.9,0-17.95,8.05-17.95,17.95s8.05,17.95,17.95,17.95
		c9.9,0,17.95-8.05,17.95-17.95S51.38,17.5,41.49,17.5"/>
	<polygon id="XMLID_517_" class="st1" points="37.67,28.66 36.82,28.66 36.82,35.02 30.45,35.02 30.45,35.87 36.82,35.87 
		36.82,42.23 37.67,42.23 37.67,35.87 44.03,35.87 44.03,35.02 37.67,35.02 	"/>
	<rect id="XMLID_516_" x="45.3" y="28.66" class="st1" width="0.85" height="13.58"/>
	<polygon id="XMLID_515_" class="st2" points="69.43,25.66 69.43,23.67 66.83,23.67 66.83,25.66 66.52,25.66 66.52,21.28 
		66.83,21.28 66.83,23.36 69.43,23.36 69.43,21.28 69.74,21.28 69.74,25.66 	"/>
	<path id="XMLID_512_" class="st2" d="M73.34,23.99c-0.01-0.76-0.47-1.19-1.16-1.19c-0.59,0-1.11,0.43-1.17,1.19H73.34z
		 M70.71,24.11c0-0.92,0.65-1.59,1.46-1.59c0.81,0,1.53,0.53,1.42,1.74H71c0.06,0.73,0.58,1.14,1.17,1.14
		c0.38,0,0.82-0.16,1.04-0.47l0.2,0.18c-0.28,0.39-0.78,0.59-1.24,0.59C71.36,25.7,70.71,25.09,70.71,24.11"/>
	<path id="XMLID_509_" class="st2" d="M74.75,24.11c0,0.78,0.52,1.29,1.18,1.29c1.6,0,1.6-2.58,0-2.58
		C75.28,22.82,74.75,23.34,74.75,24.11 M77.39,23.82v1.83H77.1V25c-0.28,0.48-0.71,0.71-1.18,0.71c-0.8,0-1.46-0.65-1.46-1.59
		c0-0.94,0.66-1.58,1.46-1.58C77.26,22.53,77.39,23.82,77.39,23.82"/>
	<rect id="XMLID_508_" x="78.45" y="21.28" class="st2" width="0.29" height="4.37"/>
	<path id="XMLID_507_" class="st2" d="M80.48,21.64v0.93h0.98v0.26h-0.98v1.88c0,0.42,0.08,0.71,0.53,0.71
		c0.14,0,0.3-0.05,0.44-0.12l0.1,0.25c-0.18,0.09-0.36,0.16-0.54,0.16c-0.61,0-0.81-0.39-0.81-0.99v-1.88h-0.61v-0.26h0.61v-0.9
		L80.48,21.64z"/>
	<path id="XMLID_506_" class="st2" d="M82.68,21.28v1.86c0.23-0.44,0.63-0.61,1.04-0.62c0.8,0,1.21,0.56,1.21,1.36v1.77h-0.28v-1.77
		c0-0.64-0.28-1.07-0.93-1.07c-0.61,0-1.02,0.5-1.02,1.14v1.69h-0.29v-4.37H82.68z"/>
	<path id="XMLID_503_" class="st2" d="M85.96,25.66h0.29v-3.1h-0.29V25.66z M86.34,21.56c0,0.32-0.46,0.32-0.46,0
		C85.88,21.24,86.34,21.24,86.34,21.56"/>
	<path id="XMLID_502_" class="st2" d="M89.71,25.22c-0.29,0.31-0.67,0.46-1.05,0.46c-0.81,0-1.48-0.6-1.48-1.58
		c0-0.97,0.65-1.57,1.48-1.57c0.38,0,0.76,0.16,1.05,0.46l-0.19,0.19c-0.23-0.25-0.55-0.37-0.86-0.37c-0.65,0-1.2,0.46-1.2,1.29
		c0,0.83,0.55,1.29,1.2,1.29c0.31,0,0.62-0.13,0.86-0.38L89.71,25.22z"/>
	<path id="XMLID_499_" class="st2" d="M90.58,25.66h0.29v-3.1h-0.29V25.66z M90.96,21.56c0,0.32-0.46,0.32-0.46,0
		C90.5,21.24,90.96,21.24,90.96,21.56"/>
	<path id="XMLID_498_" class="st2" d="M92.63,21.64v0.93h0.98v0.26h-0.98v1.88c0,0.42,0.08,0.71,0.53,0.71
		c0.14,0,0.3-0.05,0.44-0.12l0.1,0.25c-0.18,0.09-0.36,0.16-0.54,0.16c-0.61,0-0.81-0.39-0.81-0.99v-1.88h-0.61v-0.26h0.61v-0.9
		L92.63,21.64z"/>
	<polygon id="XMLID_497_" class="st2" points="97.08,22.57 95.33,26.94 95.02,26.94 95.55,25.62 94.4,22.57 94.71,22.57 
		95.38,24.39 95.72,25.29 96.05,24.39 96.77,22.57 	"/>
	<polygon id="XMLID_496_" class="st0" points="71.3,29.46 66.52,29.46 66.52,28.56 77.09,28.56 77.09,29.46 72.32,29.46 
		72.32,41.76 71.3,41.76 	"/>
	<path id="XMLID_495_" class="st0" d="M77.73,32.43l0.04,1.66c0.59-1.27,1.91-1.76,3.1-1.76c0.7-0.02,1.38,0.17,2,0.55l-0.42,0.76
		c-0.49-0.3-1.04-0.43-1.59-0.43c-1.74,0.02-3.08,1.42-3.08,3.12v5.44h-0.93v-9.33H77.73z"/>
	<path id="XMLID_487_" class="st0" d="M95.58,41.76h0.93v-9.37h-0.93V41.76z M96.81,29.39c0,0.98-1.49,0.98-1.49,0
		C95.32,28.4,96.81,28.4,96.81,29.39"/>
	<path id="XMLID_484_" class="st0" d="M100.14,32.43v1.66c0.72-1.28,2.02-1.81,3.32-1.83c2.49,0,4.21,1.53,4.21,4.12v5.38h-0.92
		v-5.36c0-2.11-1.3-3.25-3.32-3.23c-1.93,0.02-3.27,1.47-3.27,3.4v5.19h-0.93v-9.33H100.14z"/>
	<path id="XMLID_480_" class="st0" d="M110.3,41.76h0.93v-9.37h-0.93V41.76z M111.53,29.39c0,0.98-1.49,0.98-1.49,0
		C110.04,28.4,111.53,28.4,111.53,29.39"/>
	<path id="XMLID_479_" class="st0" d="M114.86,32.43v1.66c0.72-1.28,2.02-1.81,3.32-1.83c2.49,0,4.21,1.53,4.21,4.12v5.38h-0.93
		v-5.36c0-2.11-1.3-3.25-3.32-3.23c-1.93,0.02-3.27,1.47-3.27,3.4v5.19h-0.93v-9.33H114.86z"/>
	<path id="XMLID_476_" class="st0" d="M125.38,36.83c0,2.51,1.7,3.68,3.89,3.68c2.36,0,3.87-1.76,3.87-3.68
		c0-2.59-1.95-3.68-3.87-3.68C127.48,33.15,125.38,34.28,125.38,36.83 M133.11,31.96l0.6,0.53l-0.96,1.13
		c0.66,0.72,1.3,1.53,1.3,3.21c0,1.62-0.94,3.55-2.98,4.04c1.68,0.38,2.91,1.38,2.91,3.08c0,2.23-2.23,3.42-4.7,3.42
		c-2.49,0-4.61-1.36-4.61-3.72h0.93c0,1.91,1.81,2.83,3.68,2.83c1.87,0,3.8-0.72,3.8-2.53c0-1.83-2.06-2.57-3.8-2.57
		c-2.81,0-4.82-1.64-4.82-4.55c0-3.02,2.57-4.55,4.82-4.55c0.94,0,2.15,0.3,2.87,0.81L133.11,31.96z"/>
	<path id="XMLID_303_" class="st0" d="M84.67,37.09c0,2.37,1.6,3.95,3.59,3.95c4.89,0,4.89-7.88,0-7.88
		C86.27,33.16,84.67,34.73,84.67,37.09 M92.72,36.21v5.59h-0.87v-2c-0.85,1.47-2.17,2.16-3.59,2.16c-2.45,0-4.46-1.98-4.46-4.87
		c0-2.88,2.01-4.83,4.46-4.83C92.33,32.27,92.72,36.21,92.72,36.21"/>
</g>
</svg>
