<?xml version="1.0" encoding="utf-8"?>
<!-- Generator: Adobe Illustrator 19.2.1, SVG Export Plug-In . SVG Version: 6.00 Build 0)  -->
<svg version="1.1" id="Layer_1" xmlns="http://www.w3.org/2000/svg" xmlns:xlink="http://www.w3.org/1999/xlink" x="0px" y="0px"
	 viewBox="0 0 326.7 119.6" style="enable-background:new 0 0 326.7 119.6;" xml:space="preserve">
<style type="text/css">
	.st0{fill:#FFFFFF;}
</style>
<g>
	<polygon id="XMLID_213_" class="st0" points="53.3,46.3 51.6,46.3 51.6,59 38.9,59 38.9,60.7 51.6,60.7 51.6,73.3 53.3,73.3 
		53.3,60.7 65.9,60.7 65.9,59 53.3,59 	"/>
	<rect id="XMLID_212_" x="68.5" y="46.3" class="st0" width="1.7" height="27"/>
	<g>
		<polygon id="XMLID_211_" class="st0" points="128.7,73.5 128.7,61.2 112.6,61.2 112.6,73.5 110.7,73.5 110.7,46.3 112.6,46.3 
			112.6,59.3 128.7,59.3 128.7,46.3 130.7,46.3 130.7,73.5 		"/>
		<path id="XMLID_208_" class="st0" d="M153.1,63.1c0-4.7-2.9-7.4-7.2-7.4c-3.7,0-6.9,2.7-7.3,7.4H153.1z M136.7,63.9
			c0-5.8,4.1-9.9,9.1-9.9s9.5,3.3,8.8,10.8h-16.1c0.4,4.5,3.6,7.1,7.3,7.1c2.4,0,5.1-1,6.4-2.9l1.3,1.1c-1.7,2.4-4.9,3.7-7.7,3.7
			C140.8,73.8,136.7,70,136.7,63.9"/>
		<path id="XMLID_189_" class="st0" d="M161.8,63.9c0,4.8,3.3,8,7.3,8c9.9,0,9.9-16,0-16C165.1,55.9,161.8,59.1,161.8,63.9
			 M178.2,62.1v11.4h-1.8v-4.1c-1.7,3-4.4,4.4-7.3,4.4c-5,0-9.1-4-9.1-9.9s4.1-9.8,9.1-9.8C177.4,54.1,178.2,62.1,178.2,62.1"/>
		<rect id="XMLID_188_" x="184.8" y="46.3" class="st0" width="1.8" height="27.2"/>
		<path id="XMLID_187_" class="st0" d="M197.5,48.5v5.8h6.1v1.6h-6.1v11.7c0,2.6,0.5,4.4,3.3,4.4c0.9,0,1.9-0.3,2.8-0.8l0.6,1.6
			c-1.1,0.6-2.2,1-3.4,1c-3.8,0-5-2.4-5-6.2V55.9h-3.8v-1.6h3.8v-5.6L197.5,48.5z"/>
		<path id="XMLID_186_" class="st0" d="M211.1,46.3v11.6c1.4-2.8,3.9-3.8,6.4-3.8c5,0,7.5,3.5,7.5,8.5v11h-1.7v-11
			c0-4-1.7-6.6-5.8-6.6c-3.8,0-6.4,3.1-6.4,7.1v10.5h-1.8V46.3H211.1z"/>
		<path id="XMLID_183_" class="st0" d="M231.5,73.5h1.8V54.2h-1.8V73.5z M233.9,48.1c0,2-2.9,2-2.9,0S233.9,46,233.9,48.1"/>
		<path id="XMLID_182_" class="st0" d="M254.8,70.8c-1.8,1.9-4.2,2.9-6.5,2.9c-5,0-9.2-3.7-9.2-9.8s4-9.8,9.2-9.8
			c2.4,0,4.7,1,6.5,2.9l-1.2,1.2c-1.4-1.5-3.4-2.3-5.4-2.3c-4.1,0-7.4,2.8-7.4,8c0,5.2,3.4,8,7.4,8c1.9,0,3.9-0.8,5.3-2.4
			L254.8,70.8z"/>
		<path id="XMLID_179_" class="st0" d="M260.2,73.5h1.8V54.2h-1.8V73.5z M262.6,48.1c0,2-2.9,2-2.9,0C259.7,46,262.6,46,262.6,48.1"
			/>
		<path id="XMLID_178_" class="st0" d="M272.9,48.5v5.8h6.1v1.6h-6.1v11.7c0,2.6,0.5,4.4,3.3,4.4c0.9,0,1.9-0.3,2.8-0.8l0.6,1.6
			c-1.1,0.6-2.2,1-3.4,1c-3.8,0-5-2.4-5-6.2V55.9h-3.8v-1.6h3.8v-5.6L272.9,48.5z"/>
		<polygon id="XMLID_177_" class="st0" points="300.6,54.3 289.7,81.5 287.8,81.5 291.1,73.3 283.9,54.3 285.9,54.3 290,65.7 
			292.1,71.2 294.2,65.6 298.7,54.3 		"/>
		<polygon id="XMLID_176_" class="st0" points="210.9,86.8 215.5,86.8 215.5,87.4 210.9,87.4 210.9,90.9 210.3,90.9 210.3,83.1 
			215.6,83.1 215.6,83.7 210.9,83.7 		"/>
		<path id="XMLID_173_" class="st0" d="M217,90.9h0.6v-5.6H217V90.9z M217.8,83.6c0,0.6-0.9,0.6-0.9,0C216.9,83,217.8,83,217.8,83.6
			"/>
		<path id="XMLID_172_" class="st0" d="M219.9,85.4v1c0.4-0.8,1.2-1.1,2-1.1c1.5,0,2.5,0.9,2.5,2.5v3.2h-0.6v-3.2
			c0-1.3-0.8-1.9-2-1.9c-1.1,0-1.9,0.9-1.9,2v3.1h-0.6v-5.6L219.9,85.4L219.9,85.4z"/>
		<path id="XMLID_169_" class="st0" d="M226.3,88.2c0,1.5,1,2.3,2.3,2.3c1.3,0,2.3-1,2.3-2.3s-1-2.3-2.3-2.3
			C227.3,85.8,226.3,86.6,226.3,88.2 M231.4,83.1v7.9h-0.5v-1.2c-0.5,0.8-1.4,1.3-2.3,1.3c-1.6,0-2.8-1-2.8-2.9
			c0-1.8,1.2-2.9,2.8-2.9c1,0,1.9,0.4,2.3,1.3v-3.5L231.4,83.1L231.4,83.1z"/>
		<path id="XMLID_168_" class="st0" d="M241.4,84.6c-0.6-0.9-1.5-1.1-2.4-1.1c-0.9,0-2.4,0.3-2.4,1.6c0,1,1.1,1.2,2.4,1.5
			c1.5,0.3,3.1,0.6,3.1,2.3c0,1.8-1.8,2.2-3.1,2.2c-1.2,0-2.6-0.5-3.2-1.7l0.5-0.3c0.5,1,1.7,1.4,2.7,1.4s2.5-0.3,2.5-1.7
			c0-1.2-1.3-1.4-2.6-1.7c-1.4-0.3-2.9-0.6-2.9-2c0-1.7,1.7-2.2,3-2.2c1.1,0,2.1,0.2,2.9,1.3L241.4,84.6z"/>
		<path id="XMLID_165_" class="st0" d="M243.5,90.9h0.6v-5.6h-0.6V90.9z M244.2,83.6c0,0.6-0.9,0.6-0.9,0
			C243.4,83,244.2,83,244.2,83.6"/>
		<path id="XMLID_164_" class="st0" d="M254.1,90.9v-3.3c0-1.1-0.7-1.8-1.8-1.8s-1.8,0.8-1.8,1.9V91h-0.6v-3.3
			c0-1.1-0.7-1.8-1.8-1.8s-1.8,0.8-1.8,1.8V91h-0.6v-5.6h0.5l0,0.9c0.4-0.7,1.1-1,1.8-1c0.8,0,1.7,0.4,2.1,1.4
			c0.3-0.9,1.2-1.4,2.1-1.4c1.4,0,2.3,1,2.3,2.3v3.3H254.1z"/>
		<path id="XMLID_161_" class="st0" d="M261.4,88.2c0-1.6-1-2.3-2.3-2.3c-1.3,0-2.2,1-2.2,2.3c0,1.4,1,2.3,2.2,2.3
			C260.4,90.5,261.4,89.7,261.4,88.2 M256.3,93.6v-8.3h0.5v1.3c0.4-0.8,1.3-1.4,2.4-1.4c1.5,0.1,2.7,1.1,2.7,2.9
			c0,1.9-1.3,2.9-2.8,2.9c-1,0-1.8-0.5-2.3-1.4v4L256.3,93.6L256.3,93.6z"/>
		<rect id="XMLID_160_" x="263.5" y="83.1" class="st0" width="0.5" height="7.9"/>
		<path id="XMLID_157_" class="st0" d="M265.8,90.9h0.5v-5.6h-0.5V90.9z M266.5,83.6c0,0.6-0.9,0.6-0.9,0
			C265.6,83,266.5,83,266.5,83.6"/>
		<path id="XMLID_156_" class="st0" d="M272.6,90.2c-0.6,0.6-1.3,0.8-2,0.8c-1.6,0-2.9-1.1-2.9-2.9c0-1.8,1.2-2.9,2.9-2.9
			c0.7,0,1.5,0.3,2,0.8l-0.4,0.3c-0.5-0.4-1.1-0.7-1.7-0.7c-1.3,0-2.3,0.9-2.3,2.3c0,1.5,1.1,2.3,2.3,2.3c0.6,0,1.2-0.2,1.7-0.7
			L272.6,90.2z"/>
		<path id="XMLID_153_" class="st0" d="M273.8,90.9h0.5v-5.6h-0.5V90.9z M274.6,83.6c0,0.6-0.9,0.6-0.9,0
			C273.7,83,274.6,83,274.6,83.6"/>
		<path id="XMLID_152_" class="st0" d="M277.3,83.7v1.7h1.9v0.5h-1.9v3.4c0,0.8,0.2,1.3,1,1.3c0.3,0,0.6-0.1,0.9-0.2l0.2,0.4
			c-0.4,0.2-0.7,0.3-1,0.3c-1.2,0-1.6-0.7-1.6-1.8v-3.4h-1.2v-0.5h1.2v-1.6L277.3,83.7z"/>
		<polygon id="XMLID_151_" class="st0" points="285.2,85.4 281.7,93.6 281.1,93.6 282.3,90.9 280,85.4 280.6,85.4 282,88.7 
			282.6,90.3 283.2,88.7 284.6,85.4 		"/>
	</g>
	<path class="st0" d="M60.9,94.6c-19.2,0-34.8-15.6-34.8-34.8s15.6-34.8,34.8-34.8s34.8,15.6,34.8,34.8S80.1,94.6,60.9,94.6z
		 M60.9,27C42.8,27,28,41.7,28,59.8s14.7,32.9,32.9,32.9s32.9-14.7,32.9-32.9S79,27,60.9,27z"/>
</g>
<g>
	<path class="st0" d="M306.8,54.3c0.5,0,1,0.1,1.5,0.3c0.4,0.2,0.8,0.4,1.1,0.7c0.3,0.3,0.5,0.7,0.7,1.1c0.2,0.4,0.2,0.9,0.2,1.3
		c0,0.5-0.1,0.9-0.2,1.3c-0.2,0.4-0.4,0.8-0.7,1.1c-0.3,0.3-0.6,0.6-1.1,0.7c-0.4,0.2-0.9,0.3-1.5,0.3c-0.5,0-1-0.1-1.5-0.3
		c-0.4-0.2-0.8-0.4-1.1-0.7c-0.3-0.3-0.5-0.7-0.7-1.1c-0.2-0.4-0.2-0.9-0.2-1.3c0-0.5,0.1-0.9,0.2-1.3c0.2-0.4,0.4-0.8,0.7-1.1
		c0.3-0.3,0.6-0.6,1.1-0.7C305.8,54.4,306.3,54.3,306.8,54.3z M304.1,57.7c0,0.4,0.1,0.8,0.2,1.1c0.1,0.3,0.3,0.6,0.5,0.9
		c0.2,0.3,0.5,0.5,0.9,0.6c0.3,0.1,0.7,0.2,1.1,0.2s0.8-0.1,1.1-0.2c0.3-0.1,0.6-0.3,0.9-0.6s0.4-0.6,0.5-0.9
		c0.1-0.3,0.2-0.7,0.2-1.1c0-0.4-0.1-0.8-0.2-1.1c-0.1-0.3-0.3-0.6-0.5-0.9c-0.2-0.3-0.5-0.4-0.9-0.6c-0.3-0.1-0.7-0.2-1.1-0.2
		s-0.8,0.1-1.1,0.2c-0.3,0.1-0.6,0.3-0.9,0.6c-0.2,0.3-0.4,0.5-0.5,0.9C304.2,57,304.1,57.4,304.1,57.7L304.1,57.7z M307.5,58.2
		l1,1.2v0.1h-0.7l-1-1.2h-0.6v1.2h-0.7v-3.6h1.6c0.3,0,0.5,0,0.7,0.2c0.2,0.1,0.3,0.2,0.4,0.4c0.1,0.2,0.2,0.3,0.2,0.5
		c0,0.2,0,0.4-0.1,0.5c-0.1,0.2-0.2,0.3-0.3,0.4C307.9,58.1,307.7,58.2,307.5,58.2L307.5,58.2z M306.2,56.6v1.1h1
		c0.2,0,0.4-0.1,0.5-0.2s0.2-0.3,0.2-0.4s0-0.3-0.2-0.4c-0.1-0.1-0.3-0.2-0.5-0.2H306.2z"/>
</g>
</svg>
