<?xml version="1.0" encoding="utf-8"?>
<!-- Generator: Adobe Illustrator 19.1.0, SVG Export Plug-In . SVG Version: 6.00 Build 0)  -->
<svg version="1.1" id="Layer_1" xmlns="http://www.w3.org/2000/svg" xmlns:xlink="http://www.w3.org/1999/xlink" x="0px" y="0px"
	 viewBox="0 0 326.7 119.64" style="enable-background:new 0 0 326.7 119.64;" xml:space="preserve">
<style type="text/css">
	.st0{fill:#EF4350;}
	.st1{fill:#FF3D4D;}
	.st2{fill:#FFFFFF;}
	.st3{fill:#616161;}
</style>
<g>
	<path id="XMLID_551_" class="st0" d="M60.41,26.01c-18.64,0-33.81,15.17-33.81,33.81c0,18.64,15.17,33.81,33.81,33.81
		c18.64,0,33.81-15.17,33.81-33.81C94.22,41.18,79.05,26.01,60.41,26.01"/>
	<path id="XMLID_550_" class="st1" d="M60.41,26.01c18.64,0,33.81,15.17,33.81,33.81c0,18.64-15.17,33.81-33.81,33.81
		c-18.64,0-33.81-15.17-33.81-33.81C26.59,41.18,41.76,26.01,60.41,26.01"/>
	<polygon id="XMLID_549_" class="st2" points="52.81,46.32 51.12,46.32 51.12,58.98 38.47,58.98 38.47,60.67 51.12,60.67 
		51.12,73.32 52.81,73.32 52.81,60.67 65.46,60.67 65.46,58.98 52.81,58.98 	"/>
	<rect id="XMLID_548_" x="68" y="46.32" class="st2" width="1.69" height="27"/>
	<g>
		<polygon id="XMLID_150_" class="st3" points="128.27,73.28 128.27,60.93 112.14,60.93 112.14,73.28 110.18,73.28 110.18,46.09 
			112.14,46.09 112.14,59.02 128.27,59.02 128.27,46.09 130.22,46.09 130.22,73.28 		"/>
		<path id="XMLID_128_" class="st3" d="M152.58,62.91c-0.04-4.74-2.93-7.38-7.23-7.38c-3.69,0-6.87,2.68-7.27,7.38H152.58z
			 M136.26,63.68c0-5.75,4.05-9.9,9.08-9.9c5.03,0,9.51,3.3,8.82,10.8h-16.1c0.36,4.51,3.58,7.11,7.27,7.11
			c2.35,0,5.1-1.01,6.44-2.91l1.27,1.09c-1.74,2.45-4.85,3.69-7.71,3.69C140.31,73.55,136.26,69.78,136.26,63.68"/>
		<path id="XMLID_97_" class="st3" d="M161.36,63.68c0,4.82,3.26,8.04,7.31,8.04c9.95,0,9.95-16.04,0-16.04
			C164.62,55.68,161.36,58.87,161.36,63.68 M177.75,61.89v11.39h-1.77V69.2c-1.74,2.99-4.41,4.39-7.31,4.39
			c-4.99,0-9.08-4.04-9.08-9.9c0-5.86,4.09-9.82,9.08-9.82C176.96,53.86,177.75,61.89,177.75,61.89"/>
		<rect id="XMLID_96_" x="184.37" y="46.09" class="st3" width="1.77" height="27.19"/>
		<path id="XMLID_95_" class="st3" d="M196.99,48.31v5.79h6.08v1.59h-6.08v11.69c0,2.6,0.51,4.43,3.29,4.43
			c0.87,0,1.85-0.31,2.75-0.78l0.61,1.55c-1.12,0.58-2.24,0.97-3.36,0.97c-3.8,0-5.03-2.41-5.03-6.17V55.68h-3.8v-1.59h3.8V48.5
			L196.99,48.31z"/>
		<path id="XMLID_94_" class="st3" d="M210.66,46.09v11.57c1.45-2.76,3.94-3.8,6.44-3.84c4.99,0,7.49,3.45,7.49,8.47v10.99h-1.74
			V62.29c0-3.96-1.74-6.64-5.75-6.64c-3.76,0-6.37,3.11-6.37,7.11v10.52h-1.77V46.09H210.66z"/>
		<path id="XMLID_91_" class="st3" d="M231.02,73.28h1.77V54.01h-1.77V73.28z M233.37,47.84c0,2.02-2.86,2.02-2.86,0
			C230.51,45.82,233.37,45.82,233.37,47.84"/>
		<path id="XMLID_90_" class="st3" d="M254.31,70.6c-1.81,1.94-4.16,2.87-6.51,2.87c-5.03,0-9.19-3.73-9.19-9.79
			c0-6.06,4.02-9.78,9.19-9.78c2.35,0,4.7,0.97,6.51,2.87l-1.16,1.2c-1.45-1.55-3.43-2.29-5.35-2.29c-4.05,0-7.45,2.84-7.45,8
			c0,5.17,3.4,8,7.45,8c1.92,0,3.87-0.82,5.32-2.37L254.31,70.6z"/>
		<path id="XMLID_87_" class="st3" d="M259.74,73.28h1.77V54.01h-1.77V73.28z M262.09,47.84c0,2.02-2.86,2.02-2.86,0
			C259.23,45.82,262.09,45.82,262.09,47.84"/>
		<path id="XMLID_86_" class="st3" d="M272.47,48.31v5.79h6.08v1.59h-6.08v11.69c0,2.6,0.51,4.43,3.29,4.43
			c0.87,0,1.85-0.31,2.75-0.78l0.61,1.55c-1.12,0.58-2.24,0.97-3.36,0.97c-3.8,0-5.03-2.41-5.03-6.17V55.68h-3.8v-1.59h3.8V48.5
			L272.47,48.31z"/>
		<polygon id="XMLID_85_" class="st3" points="300.1,54.09 289.22,81.28 287.34,81.28 290.63,73.05 283.46,54.09 285.38,54.09 
			289.54,65.43 291.64,70.99 293.7,65.39 298.19,54.09 		"/>
		<polygon id="XMLID_84_" class="st1" points="210.46,86.58 214.99,86.58 214.99,87.15 210.46,87.15 210.46,90.72 209.85,90.72 
			209.85,82.82 215.15,82.82 215.15,83.43 210.46,83.43 		"/>
		<path id="XMLID_81_" class="st1" d="M216.56,90.71h0.55v-5.59h-0.55V90.71z M217.29,83.33c0,0.59-0.89,0.59-0.89,0
			C216.4,82.75,217.29,82.75,217.29,83.33"/>
		<path id="XMLID_80_" class="st1" d="M219.39,85.14v0.99c0.43-0.77,1.2-1.08,1.98-1.09c1.49,0,2.51,0.91,2.51,2.46v3.21h-0.55v-3.2
			c0-1.26-0.78-1.94-1.98-1.93c-1.15,0.01-1.95,0.88-1.95,2.03v3.1h-0.55v-5.56H219.39z"/>
		<path id="XMLID_77_" class="st1" d="M225.78,87.93c0,1.54,1.03,2.33,2.28,2.33c1.31,0,2.28-0.96,2.28-2.34s-0.99-2.33-2.28-2.33
			C226.81,85.58,225.78,86.36,225.78,87.93 M230.89,82.82v7.89h-0.54v-1.23c-0.46,0.84-1.37,1.32-2.32,1.32
			c-1.55,0-2.78-1.02-2.78-2.87c0-1.84,1.24-2.87,2.79-2.87c0.96,0,1.86,0.41,2.31,1.31v-3.54H230.89z"/>
		<path id="XMLID_76_" class="st1" d="M240.91,84.34c-0.58-0.92-1.5-1.06-2.39-1.07c-0.92,0-2.39,0.34-2.39,1.6
			c0,1,1.08,1.24,2.41,1.49c1.52,0.29,3.1,0.56,3.1,2.27c-0.01,1.78-1.8,2.21-3.12,2.21c-1.23,0-2.62-0.51-3.23-1.71l0.54-0.27
			c0.48,0.96,1.72,1.43,2.69,1.43c0.97,0,2.51-0.27,2.51-1.67c0.01-1.18-1.3-1.44-2.59-1.69c-1.44-0.28-2.92-0.57-2.92-2.03
			c-0.03-1.67,1.7-2.19,3-2.19c1.13,0,2.11,0.18,2.88,1.34L240.91,84.34z"/>
		<path id="XMLID_73_" class="st1" d="M243.04,90.71h0.55v-5.59h-0.55V90.71z M243.78,83.33c0,0.59-0.89,0.59-0.89,0
			C242.89,82.75,243.78,82.75,243.78,83.33"/>
		<path id="XMLID_72_" class="st1" d="M253.58,90.71v-3.33c0-1.07-0.72-1.82-1.78-1.82c-1.06,0-1.79,0.79-1.79,1.86v3.3h-0.55v-3.3
			c0-1.07-0.73-1.85-1.79-1.85c-1.06,0-1.78,0.78-1.78,1.85v3.3h-0.55v-5.56h0.52l0.01,0.92c0.38-0.73,1.09-1.04,1.81-1.04
			c0.84,0,1.74,0.38,2.06,1.37c0.34-0.91,1.21-1.37,2.06-1.37c1.36,0,2.33,0.96,2.33,2.34v3.33H253.58z"/>
		<path id="XMLID_68_" class="st1" d="M260.96,87.93c0-1.57-1.01-2.33-2.28-2.33c-1.3,0-2.25,0.98-2.25,2.34
			c0,1.36,0.98,2.34,2.25,2.34C259.95,90.28,260.96,89.49,260.96,87.93 M255.86,93.4v-8.26h0.54v1.32c0.44-0.84,1.33-1.4,2.41-1.4
			c1.51,0.06,2.7,1.07,2.7,2.86c0,1.87-1.26,2.88-2.83,2.88c-0.95,0-1.82-0.46-2.3-1.39v3.98H255.86z"/>
		<rect id="XMLID_66_" x="263" y="82.82" class="st1" width="0.55" height="7.88"/>
		<path id="XMLID_61_" class="st1" d="M265.33,90.71h0.55v-5.59h-0.55V90.71z M266.06,83.33c0,0.59-0.89,0.59-0.89,0
			C265.17,82.75,266.06,82.75,266.06,83.33"/>
		<path id="XMLID_60_" class="st1" d="M272.14,89.97c-0.56,0.56-1.3,0.83-2.03,0.83c-1.57,0-2.86-1.12-2.86-2.87
			c0-1.76,1.25-2.87,2.86-2.87c0.73,0,1.47,0.28,2.03,0.83l-0.35,0.35c-0.45-0.45-1.08-0.66-1.68-0.66c-1.26,0-2.32,0.86-2.32,2.35
			c0,1.5,1.06,2.35,2.32,2.35c0.6,0,1.21-0.24,1.66-0.69L272.14,89.97z"/>
		<path id="XMLID_57_" class="st1" d="M273.36,90.71h0.55v-5.59h-0.55V90.71z M274.1,83.33c0,0.59-0.89,0.59-0.89,0
			C273.21,82.75,274.1,82.75,274.1,83.33"/>
		<path id="XMLID_56_" class="st1" d="M276.81,83.47v1.68h1.89v0.46h-1.89V89c0,0.75,0.16,1.28,1.03,1.28
			c0.27,0,0.57-0.09,0.85-0.22l0.19,0.45c-0.35,0.17-0.7,0.28-1.05,0.28c-1.18,0-1.57-0.7-1.57-1.79v-3.39h-1.18v-0.46h1.18v-1.62
			L276.81,83.47z"/>
		<polygon id="XMLID_55_" class="st1" points="284.76,85.14 281.22,93.4 280.64,93.4 281.81,90.64 279.58,85.14 280.18,85.14 
			281.47,88.43 282.13,90.04 282.77,88.42 284.16,85.14 		"/>
	</g>
</g>
</svg>
