<?xml version="1.0" encoding="utf-8"?>
<!-- Generator: Adobe Illustrator 19.1.0, SVG Export Plug-In . SVG Version: 6.00 Build 0)  -->
<svg version="1.1" id="Layer_1" xmlns="http://www.w3.org/2000/svg" xmlns:xlink="http://www.w3.org/1999/xlink" x="0px" y="0px"
	 viewBox="0 0 157.59 70.89" style="enable-background:new 0 0 157.59 70.89;" xml:space="preserve">
<style type="text/css">
	.st0{fill:#2196F3;}
	.st1{fill:#969696;}
</style>
<g>
	<path id="XMLID_965_" class="st0" d="M39.51,17.5c-9.9,0-17.95,8.05-17.95,17.95c0,9.9,8.05,17.95,17.95,17.95
		c9.9,0,17.95-8.05,17.95-17.95C57.46,25.55,49.41,17.5,39.51,17.5 M39.51,18.44c9.37,0,17,7.63,17,17c0,9.37-7.63,17-17,17
		s-17-7.63-17-17C22.51,26.07,30.14,18.44,39.51,18.44"/>
	<polygon id="XMLID_964_" class="st0" points="35.69,28.66 34.84,28.66 34.84,35.02 28.48,35.02 28.48,35.87 34.84,35.87 
		34.84,42.23 35.69,42.23 35.69,35.87 42.05,35.87 42.05,35.02 35.69,35.02 	"/>
	<rect id="XMLID_963_" x="43.33" y="28.66" class="st0" width="0.85" height="13.58"/>
	<polygon id="XMLID_962_" class="st1" points="67.45,25.66 67.45,23.67 64.86,23.67 64.86,25.66 64.54,25.66 64.54,21.28 
		64.86,21.28 64.86,23.36 67.45,23.36 67.45,21.28 67.77,21.28 67.77,25.66 	"/>
	<path id="XMLID_946_" class="st1" d="M71.36,23.99c-0.01-0.76-0.47-1.19-1.16-1.19c-0.59,0-1.11,0.43-1.17,1.19H71.36z
		 M68.74,24.11c0-0.92,0.65-1.59,1.46-1.59c0.81,0,1.53,0.53,1.42,1.74h-2.59c0.06,0.73,0.58,1.14,1.17,1.14
		c0.38,0,0.82-0.16,1.04-0.47l0.2,0.18c-0.28,0.39-0.78,0.59-1.24,0.59C69.39,25.7,68.74,25.09,68.74,24.11"/>
	<path id="XMLID_943_" class="st1" d="M72.78,24.11c0,0.78,0.52,1.29,1.18,1.29c1.6,0,1.6-2.58,0-2.58
		C73.3,22.82,72.78,23.34,72.78,24.11 M75.41,23.82v1.83h-0.29V25c-0.28,0.48-0.71,0.71-1.18,0.71c-0.8,0-1.46-0.65-1.46-1.59
		c0-0.94,0.66-1.58,1.46-1.58C75.29,22.53,75.41,23.82,75.41,23.82"/>
	<rect id="XMLID_942_" x="76.48" y="21.28" class="st1" width="0.29" height="4.37"/>
	<path id="XMLID_941_" class="st1" d="M78.51,21.64v0.93h0.98v0.26h-0.98v1.88c0,0.42,0.08,0.71,0.53,0.71
		c0.14,0,0.3-0.05,0.44-0.12l0.1,0.25c-0.18,0.09-0.36,0.16-0.54,0.16c-0.61,0-0.81-0.39-0.81-0.99v-1.88h-0.61v-0.26h0.61v-0.9
		L78.51,21.64z"/>
	<path id="XMLID_940_" class="st1" d="M80.71,21.28v1.86c0.23-0.44,0.63-0.61,1.04-0.62c0.8,0,1.21,0.56,1.21,1.36v1.77h-0.28v-1.77
		c0-0.64-0.28-1.07-0.93-1.07c-0.61,0-1.02,0.5-1.02,1.14v1.69h-0.29v-4.37H80.71z"/>
	<path id="XMLID_937_" class="st1" d="M83.99,25.66h0.29v-3.1h-0.29V25.66z M84.36,21.56c0,0.32-0.46,0.32-0.46,0
		C83.9,21.24,84.36,21.24,84.36,21.56"/>
	<path id="XMLID_936_" class="st1" d="M87.73,25.22c-0.29,0.31-0.67,0.46-1.05,0.46c-0.81,0-1.48-0.6-1.48-1.58
		c0-0.97,0.65-1.57,1.48-1.57c0.38,0,0.76,0.16,1.05,0.46l-0.19,0.19c-0.23-0.25-0.55-0.37-0.86-0.37c-0.65,0-1.2,0.46-1.2,1.29
		c0,0.83,0.55,1.29,1.2,1.29c0.31,0,0.62-0.13,0.86-0.38L87.73,25.22z"/>
	<path id="XMLID_933_" class="st1" d="M88.61,25.66h0.29v-3.1h-0.29V25.66z M88.99,21.56c0,0.32-0.46,0.32-0.46,0
		C88.53,21.24,88.99,21.24,88.99,21.56"/>
	<path id="XMLID_932_" class="st1" d="M90.66,21.64v0.93h0.98v0.26h-0.98v1.88c0,0.42,0.08,0.71,0.53,0.71
		c0.14,0,0.3-0.05,0.44-0.12l0.1,0.25c-0.18,0.09-0.36,0.16-0.54,0.16c-0.61,0-0.81-0.39-0.81-0.99v-1.88h-0.61v-0.26h0.61v-0.9
		L90.66,21.64z"/>
	<polygon id="XMLID_931_" class="st1" points="95.1,22.57 93.35,26.94 93.05,26.94 93.58,25.62 92.42,22.57 92.73,22.57 93.4,24.39 
		93.74,25.29 94.07,24.39 94.79,22.57 	"/>
	<path id="XMLID_925_" class="st0" d="M74.57,37.58l-3.55-8.05l-3.55,8.05H74.57z M76.42,41.78l-1.45-3.25h-7.9l-1.44,3.25h-1.1
		l5.93-13.22h1.11l5.93,13.22H76.42z"/>
	<path id="XMLID_924_" class="st0" d="M86.3,41.78V40.1c-0.72,1.28-2.02,1.81-3.32,1.83c-2.49,0-4.21-1.53-4.21-4.12v-5.38h0.93
		v5.36c0,2.12,1.3,3.25,3.32,3.23c1.93-0.02,3.27-1.47,3.27-3.4v-5.19h0.93v9.35H86.3z"/>
	<path id="XMLID_921_" class="st0" d="M90.33,37.11c0,2.59,1.72,3.91,3.82,3.91c2.19,0,3.82-1.61,3.82-3.93
		c0-2.32-1.66-3.91-3.82-3.91C92.05,33.18,90.33,34.49,90.33,37.11 M98.88,28.56v13.22h-0.91v-2.06c-0.78,1.42-2.3,2.21-3.89,2.21
		c-2.61,0-4.67-1.72-4.67-4.82c0-3.08,2.08-4.82,4.68-4.82c1.61,0,3.12,0.68,3.87,2.19v-5.93H98.88z"/>
	<path id="XMLID_918_" class="st0" d="M101.66,41.78h0.93v-9.37h-0.93V41.78z M102.89,29.41c0,0.98-1.49,0.98-1.49,0
		C101.4,28.42,102.89,28.42,102.89,29.41"/>
	<path id="XMLID_917_" class="st0" d="M107.25,29.63v2.81h3.17v0.77h-3.17v5.69c0,1.27,0.26,2.15,1.72,2.15
		c0.45,0,0.96-0.15,1.44-0.38l0.32,0.76c-0.59,0.28-1.17,0.47-1.76,0.47c-1.98,0-2.62-1.17-2.62-3v-5.69h-1.98v-0.77h1.98v-2.72
		L107.25,29.63z"/>
	<path id="XMLID_914_" class="st0" d="M112.28,41.78h0.93v-9.37h-0.93V41.78z M113.5,29.41c0,0.98-1.49,0.98-1.49,0
		C112.01,28.42,113.5,28.42,113.5,29.41"/>
	<path id="XMLID_913_" class="st0" d="M116.84,32.45v1.66c0.72-1.28,2.02-1.81,3.32-1.83c2.49,0,4.21,1.53,4.21,4.12v5.38h-0.93
		v-5.36c0-2.11-1.3-3.25-3.32-3.23c-1.93,0.02-3.27,1.47-3.27,3.4v5.19h-0.93v-9.33H116.84z"/>
	<path id="XMLID_910_" class="st0" d="M127.36,36.85c0,2.51,1.7,3.68,3.89,3.68c2.36,0,3.87-1.76,3.87-3.68
		c0-2.59-1.95-3.68-3.87-3.68C129.46,33.16,127.36,34.3,127.36,36.85 M135.08,31.97l0.6,0.53l-0.96,1.13
		c0.66,0.72,1.3,1.53,1.3,3.21c0,1.62-0.94,3.55-2.98,4.04c1.68,0.38,2.91,1.38,2.91,3.08c0,2.23-2.23,3.42-4.7,3.42
		c-2.49,0-4.61-1.36-4.61-3.72h0.93c0,1.91,1.81,2.83,3.68,2.83c1.87,0,3.8-0.72,3.8-2.53c0-1.83-2.06-2.57-3.8-2.57
		c-2.81,0-4.82-1.64-4.82-4.55c0-3.02,2.57-4.55,4.82-4.55c0.94,0,2.15,0.3,2.87,0.81L135.08,31.97z"/>
</g>
</svg>
