<?xml version="1.0" encoding="utf-8"?>
<!-- Generator: Adobe Illustrator 19.1.0, SVG Export Plug-In . SVG Version: 6.00 Build 0)  -->
<svg version="1.1" id="Layer_1" xmlns="http://www.w3.org/2000/svg" xmlns:xlink="http://www.w3.org/1999/xlink" x="0px" y="0px"
	 viewBox="0 0 157.59 70.89" style="enable-background:new 0 0 157.59 70.89;" xml:space="preserve">
<style type="text/css">
	.st0{fill:#3F51B5;}
	.st1{fill:#969696;}
</style>
<g>
	<path id="XMLID_1069_" class="st0" d="M46.82,17.5c-9.9,0-17.95,8.05-17.95,17.95s8.05,17.95,17.95,17.95
		c9.9,0,17.95-8.05,17.95-17.95S56.71,17.5,46.82,17.5 M46.82,18.44c9.37,0,17,7.63,17,17s-7.63,17-17,17c-9.37,0-17-7.63-17-17
		S37.44,18.44,46.82,18.44"/>
	<polygon id="XMLID_1068_" class="st0" points="43,28.66 42.15,28.66 42.15,35.02 35.79,35.02 35.79,35.87 42.15,35.87 42.15,42.23 
		43,42.23 43,35.87 49.36,35.87 49.36,35.02 43,35.02 	"/>
	<rect id="XMLID_1067_" x="50.64" y="28.66" class="st0" width="0.85" height="13.58"/>
	<polygon id="XMLID_1066_" class="st1" points="74.76,25.66 74.76,23.67 72.16,23.67 72.16,25.66 71.85,25.66 71.85,21.28 
		72.16,21.28 72.16,23.36 74.76,23.36 74.76,21.28 75.07,21.28 75.07,25.66 	"/>
	<path id="XMLID_1063_" class="st1" d="M78.67,23.99c-0.01-0.76-0.47-1.19-1.16-1.19c-0.59,0-1.11,0.43-1.17,1.19H78.67z
		 M76.04,24.11c0-0.92,0.65-1.59,1.46-1.59c0.81,0,1.53,0.53,1.42,1.74h-2.59c0.06,0.73,0.58,1.14,1.17,1.14
		c0.38,0,0.82-0.16,1.04-0.47l0.2,0.18c-0.28,0.39-0.78,0.59-1.24,0.59C76.7,25.7,76.04,25.09,76.04,24.11"/>
	<path id="XMLID_1060_" class="st1" d="M80.08,24.11c0,0.78,0.52,1.29,1.18,1.29c1.6,0,1.6-2.58,0-2.58
		C80.61,22.82,80.08,23.34,80.08,24.11 M82.72,23.82v1.83h-0.29V25c-0.28,0.48-0.71,0.71-1.18,0.71c-0.8,0-1.46-0.65-1.46-1.59
		c0-0.94,0.66-1.58,1.46-1.58C82.59,22.53,82.72,23.82,82.72,23.82"/>
	<rect id="XMLID_1059_" x="83.79" y="21.28" class="st1" width="0.29" height="4.37"/>
	<path id="XMLID_1058_" class="st1" d="M85.82,21.64v0.93h0.98v0.26h-0.98v1.88c0,0.42,0.08,0.71,0.53,0.71
		c0.14,0,0.3-0.05,0.44-0.12l0.1,0.25c-0.18,0.09-0.36,0.16-0.54,0.16c-0.61,0-0.81-0.39-0.81-0.99v-1.88h-0.61v-0.26h0.61v-0.9
		L85.82,21.64z"/>
	<path id="XMLID_1057_" class="st1" d="M88.02,21.28v1.86c0.23-0.44,0.63-0.61,1.04-0.62c0.8,0,1.21,0.56,1.21,1.36v1.77h-0.28
		v-1.77c0-0.64-0.28-1.07-0.93-1.07c-0.61,0-1.02,0.5-1.02,1.14v1.69h-0.29v-4.37H88.02z"/>
	<path id="XMLID_1054_" class="st1" d="M91.29,25.66h0.29v-3.1h-0.29V25.66z M91.67,21.56c0,0.32-0.46,0.32-0.46,0
		C91.21,21.24,91.67,21.24,91.67,21.56"/>
	<path id="XMLID_1053_" class="st1" d="M95.04,25.22c-0.29,0.31-0.67,0.46-1.05,0.46c-0.81,0-1.48-0.6-1.48-1.58
		c0-0.97,0.65-1.57,1.48-1.57c0.38,0,0.76,0.16,1.05,0.46l-0.19,0.19c-0.23-0.25-0.55-0.37-0.86-0.37c-0.65,0-1.2,0.46-1.2,1.29
		c0,0.83,0.55,1.29,1.2,1.29c0.31,0,0.62-0.13,0.86-0.38L95.04,25.22z"/>
	<path id="XMLID_1050_" class="st1" d="M95.91,25.66h0.29v-3.1h-0.29V25.66z M96.29,21.56c0,0.32-0.46,0.32-0.46,0
		C95.83,21.24,96.29,21.24,96.29,21.56"/>
	<path id="XMLID_1049_" class="st1" d="M97.96,21.64v0.93h0.98v0.26h-0.98v1.88c0,0.42,0.08,0.71,0.53,0.71
		c0.14,0,0.3-0.05,0.44-0.12l0.1,0.25c-0.18,0.09-0.36,0.16-0.54,0.16c-0.61,0-0.81-0.39-0.81-0.99v-1.88h-0.61v-0.26h0.61v-0.9
		L97.96,21.64z"/>
	<polygon id="XMLID_1048_" class="st1" points="102.41,22.57 100.66,26.94 100.36,26.94 100.88,25.62 99.73,22.57 100.04,22.57 
		100.71,24.39 101.05,25.29 101.38,24.39 102.1,22.57 	"/>
	<g id="XMLID_893_">
		<path id="XMLID_908_" class="st0" d="M82.19,39.58c-1.26,1.25-2.88,1.86-4.51,1.86c-4.15,0-6.36-2.92-6.36-6.26
			c-0.05-3.31,2.12-6.4,6.36-6.4c1.63,0,3.25,0.6,4.51,1.86l-0.65,0.57c-1.06-1.06-2.44-1.57-3.85-1.57c-3.62,0-5.44,2.55-5.44,5.52
			c0.05,2.92,1.87,5.41,5.44,5.41c1.41,0,2.81-0.51,3.87-1.57L82.19,39.58z"/>
		<path id="XMLID_905_" class="st0" d="M83.61,36.96c0-2.78,1.96-4.54,4.44-4.54c2.47,0,4.44,1.77,4.44,4.54
			c0,2.78-1.96,4.47-4.44,4.47C85.57,41.44,83.61,39.74,83.61,36.96z M91.63,36.96c0-2.26-1.61-3.73-3.59-3.73s-3.59,1.47-3.59,3.73
			c0,2.26,1.61,3.62,3.59,3.62S91.63,39.23,91.63,36.96z"/>
		<path id="XMLID_902_" class="st0" d="M103.05,28.92V41.3h-0.85v-1.93c-0.73,1.34-2.16,2.07-3.64,2.07c-2.46,0-4.37-1.61-4.37-4.51
			c0-2.88,1.94-4.51,4.38-4.51c1.5,0,2.92,0.64,3.62,2.05v-5.55H103.05z M95.05,36.93c0,2.42,1.61,3.66,3.57,3.66
			c2.03,0,3.57-1.49,3.57-3.68c0-2.17-1.54-3.66-3.57-3.66C96.65,33.25,95.05,34.47,95.05,36.93z"/>
		<path id="XMLID_899_" class="st0" d="M106.36,29.03c0.35,0,0.71,0.21,0.71,0.69s-0.35,0.69-0.71,0.69c-0.34,0-0.69-0.21-0.69-0.69
			S106.02,29.03,106.36,29.03z M106.78,32.53v8.77h-0.87v-8.77H106.78z"/>
		<path id="XMLID_897_" class="st0" d="M110.5,32.56v1.56c0.69-1.2,1.89-1.7,3.11-1.71c2.33,0,3.94,1.45,3.94,3.85v5.04h-0.87v-5.02
			c0-2-1.2-3.04-3.11-3.02c-1.8,0-3.06,1.4-3.06,3.18v4.86h-0.87v-8.73H110.5z"/>
		<path id="XMLID_894_" class="st0" d="M127.84,32.12l0.57,0.49l-0.9,1.06c0.62,0.65,1.22,1.45,1.22,3c0,1.54-0.88,3.31-2.79,3.78
			c1.57,0.35,2.72,1.31,2.72,2.88c0,2.09-2.09,3.2-4.4,3.2c-2.33,0-4.31-1.27-4.31-3.48h0.87c0,1.79,1.7,2.65,3.45,2.65
			c1.75,0,3.55-0.67,3.55-2.37c0-1.71-1.93-2.4-3.55-2.4c-2.63,0-4.51-1.52-4.51-4.26c0-2.83,2.4-4.26,4.51-4.26
			c0.9,0,2,0.28,2.69,0.76L127.84,32.12z M120.61,36.68c0,2.33,1.59,3.45,3.64,3.45c2.21,0,3.62-1.64,3.62-3.45
			c0-2.42-1.82-3.45-3.62-3.45C122.57,33.23,120.61,34.3,120.61,36.68z"/>
	</g>
</g>
</svg>
