<?xml version="1.0" encoding="utf-8"?>
<!-- Generator: Adobe Illustrator 19.1.0, SVG Export Plug-In . SVG Version: 6.00 Build 0)  -->
<svg version="1.1" id="Layer_1" xmlns="http://www.w3.org/2000/svg" xmlns:xlink="http://www.w3.org/1999/xlink" x="0px" y="0px"
	 viewBox="-243.4 415.7 145.1 35.9" style="enable-background:new -243.4 415.7 145.1 35.9;" xml:space="preserve">
<style type="text/css">
	.st0{fill:#FFFFFF;}
</style>
<g>
	<path id="XMLID_775_" class="st0" d="M-225.5,415.7c-9.9,0-17.9,8.1-17.9,17.9c0,9.9,8.1,17.9,17.9,17.9c9.9,0,17.9-8.1,17.9-17.9
		C-207.5,423.8-215.6,415.7-225.5,415.7 M-225.5,416.6c9.4,0,17,7.6,17,17c0,9.4-7.6,17-17,17c-9.4,0-17-7.6-17-17
		C-242.5,424.3-234.8,416.6-225.5,416.6"/>
	<polygon id="XMLID_774_" class="st0" points="-229.3,426.9 -230.1,426.9 -230.1,433.2 -236.5,433.2 -236.5,434.1 -230.1,434.1 
		-230.1,440.4 -229.3,440.4 -229.3,434.1 -222.9,434.1 -222.9,433.2 -229.3,433.2 	"/>
	<rect id="XMLID_773_" x="-221.6" y="426.9" class="st0" width="0.9" height="13.6"/>
	<polygon id="XMLID_772_" class="st0" points="-197.5,423.9 -197.5,421.9 -200.1,421.9 -200.1,423.9 -200.4,423.9 -200.4,419.5 
		-200.1,419.5 -200.1,421.6 -197.5,421.6 -197.5,419.5 -197.2,419.5 -197.2,423.9 	"/>
	<path id="XMLID_769_" class="st0" d="M-193.6,422.2c0-0.8-0.5-1.2-1.2-1.2c-0.6,0-1.1,0.4-1.2,1.2H-193.6z M-196.2,422.3
		c0-0.9,0.7-1.6,1.5-1.6c0.8,0,1.5,0.5,1.4,1.7h-2.6c0.1,0.7,0.6,1.1,1.2,1.1c0.4,0,0.8-0.2,1-0.5l0.2,0.2c-0.3,0.4-0.8,0.6-1.2,0.6
		C-195.6,423.9-196.2,423.3-196.2,422.3"/>
	<path id="XMLID_765_" class="st0" d="M-192.2,422.3c0,0.8,0.5,1.3,1.2,1.3c1.6,0,1.6-2.6,0-2.6C-191.7,421-192.2,421.5-192.2,422.3
		 M-189.5,422v1.8h-0.3v-0.7c-0.3,0.5-0.7,0.7-1.2,0.7c-0.8,0-1.5-0.6-1.5-1.6c0-0.9,0.7-1.6,1.5-1.6
		C-189.7,420.7-189.5,422-189.5,422"/>
	<rect id="XMLID_764_" x="-188.5" y="419.5" class="st0" width="0.3" height="4.4"/>
	<path id="XMLID_763_" class="st0" d="M-186.5,419.8v0.9h1v0.3h-1v1.9c0,0.4,0.1,0.7,0.5,0.7c0.1,0,0.3,0,0.4-0.1l0.1,0.3
		c-0.2,0.1-0.4,0.2-0.5,0.2c-0.6,0-0.8-0.4-0.8-1V421h-0.6v-0.3h0.6v-0.9L-186.5,419.8z"/>
	<path id="XMLID_762_" class="st0" d="M-184.3,419.5v1.9c0.2-0.4,0.6-0.6,1-0.6c0.8,0,1.2,0.6,1.2,1.4v1.8h-0.3v-1.8
		c0-0.6-0.3-1.1-0.9-1.1c-0.6,0-1,0.5-1,1.1v1.7h-0.3v-4.4H-184.3z"/>
	<path id="XMLID_759_" class="st0" d="M-181,423.9h0.3v-3.1h-0.3V423.9z M-180.6,419.8c0,0.3-0.5,0.3-0.5,0
		C-181.1,419.4-180.6,419.4-180.6,419.8"/>
	<path id="XMLID_758_" class="st0" d="M-177.2,423.4c-0.3,0.3-0.7,0.5-1,0.5c-0.8,0-1.5-0.6-1.5-1.6c0-1,0.6-1.6,1.5-1.6
		c0.4,0,0.8,0.2,1,0.5l-0.2,0.2c-0.2-0.3-0.6-0.4-0.9-0.4c-0.7,0-1.2,0.5-1.2,1.3c0,0.8,0.5,1.3,1.2,1.3c0.3,0,0.6-0.1,0.9-0.4
		L-177.2,423.4z"/>
	<path id="XMLID_755_" class="st0" d="M-176.4,423.9h0.3v-3.1h-0.3V423.9z M-176,419.8c0,0.3-0.5,0.3-0.5,0
		C-176.4,419.4-176,419.4-176,419.8"/>
	<path id="XMLID_754_" class="st0" d="M-174.3,419.8v0.9h1v0.3h-1v1.9c0,0.4,0.1,0.7,0.5,0.7c0.1,0,0.3,0,0.4-0.1l0.1,0.3
		c-0.2,0.1-0.4,0.2-0.5,0.2c-0.6,0-0.8-0.4-0.8-1V421h-0.6v-0.3h0.6v-0.9L-174.3,419.8z"/>
	<polygon id="XMLID_753_" class="st0" points="-169.9,420.8 -171.6,425.1 -171.9,425.1 -171.4,423.8 -172.5,420.8 -172.2,420.8 
		-171.6,422.6 -171.2,423.5 -170.9,422.6 -170.2,420.8 	"/>
	<path id="XMLID_752_" class="st0" d="M-188.8,438.3c-1.3,1.3-3.1,2-4.8,2c-4.5,0-6.8-3.1-6.8-6.7c0-3.5,2.3-6.8,6.8-6.8
		c1.7,0,3.5,0.7,4.8,2l-0.7,0.6c-1.1-1.1-2.6-1.7-4.1-1.7c-3.9,0-5.8,2.7-5.8,5.9c0,3.1,2,5.8,5.8,5.8c1.5,0,3-0.6,4.1-1.7
		L-188.8,438.3z"/>
	<path id="XMLID_749_" class="st0" d="M-178.9,435.5c0-2.4-1.7-4-3.8-4c-2.1,0-3.8,1.6-3.8,4c0,2.4,1.7,3.9,3.8,3.9
		C-180.6,439.4-178.9,437.9-178.9,435.5 M-187.4,435.5c0-3,2.1-4.9,4.7-4.9s4.7,1.9,4.7,4.9c0,3-2.1,4.8-4.7,4.8
		S-187.4,438.5-187.4,435.5"/>
	<path id="XMLID_748_" class="st0" d="M-161.9,440.1v-5.6c0-1.8-1.2-3.1-3-3.1s-3,1.3-3,3.1v5.5h-0.9v-5.5c0-1.8-1.2-3.1-3-3.1
		c-1.8,0-3,1.3-3,3.1v5.5h-0.9v-9.3h0.9l0,1.5c0.6-1.2,1.8-1.7,3-1.7c1.4,0,2.9,0.6,3.5,2.3c0.6-1.5,2-2.3,3.5-2.3
		c2.3,0,3.9,1.6,3.9,3.9v5.6H-161.9z"/>
	<path id="XMLID_745_" class="st0" d="M-149.7,435.5c0-2.6-1.7-3.9-3.8-3.9c-2.2,0-3.8,1.6-3.8,3.9c0,2.3,1.6,3.9,3.8,3.9
		C-151.4,439.4-149.7,438.1-149.7,435.5 M-158.3,444.6v-13.8h0.9v2.2c0.7-1.4,2.2-2.3,4-2.3c2.5,0.1,4.5,1.8,4.5,4.8
		c0,3.1-2.1,4.8-4.7,4.8c-1.6,0-3.1-0.8-3.9-2.3v6.7H-158.3z"/>
	<rect id="XMLID_744_" x="-146.5" y="426.9" class="st0" width="0.9" height="13.2"/>
	<path id="XMLID_741_" class="st0" d="M-142.8,440.1h0.9v-9.4h-0.9V440.1z M-141.5,427.8c0,1-1.5,1-1.5,0
		C-143,426.8-141.5,426.8-141.5,427.8"/>
	<path id="XMLID_740_" class="st0" d="M-126.6,430.8v1.7c0.7-1.3,2-1.8,3.3-1.8c2.5,0,4.2,1.5,4.2,4.1v5.4h-0.9v-5.4
		c0-2.1-1.3-3.2-3.3-3.2c-1.9,0-3.3,1.5-3.3,3.4v5.2h-0.9v-9.3H-126.6z"/>
	<path id="XMLID_739_" class="st0" d="M-108.7,438.9c-0.9,0.9-2.2,1.4-3.4,1.4c-2.6,0-4.8-1.9-4.8-4.8c0-2.9,2.1-4.8,4.8-4.8
		c1.2,0,2.5,0.5,3.4,1.4l-0.6,0.6c-0.8-0.8-1.8-1.1-2.8-1.1c-2.1,0-3.9,1.4-3.9,3.9c0,2.5,1.8,3.9,3.9,3.9c1,0,2-0.4,2.8-1.2
		L-108.7,438.9z"/>
	<path id="XMLID_736_" class="st0" d="M-99.2,435.1c0-2.3-1.5-3.6-3.8-3.6c-1.9,0-3.6,1.3-3.8,3.6H-99.2z M-107.7,435.5
		c0-2.8,2.1-4.8,4.7-4.8c2.6,0,5,1.6,4.6,5.3h-8.4c0.2,2.2,1.9,3.5,3.8,3.5c1.2,0,2.7-0.5,3.4-1.4l0.7,0.5c-0.9,1.2-2.5,1.8-4,1.8
		C-105.6,440.3-107.7,438.4-107.7,435.5"/>
	<path id="XMLID_634_" class="st0" d="M-138.2,435.4c0,2.4,1.6,3.9,3.6,3.9c4.9,0,4.9-7.8,0-7.8
		C-136.7,431.5-138.2,433.1-138.2,435.4 M-130.2,434.6v5.6h-0.9v-2c-0.8,1.5-2.2,2.1-3.6,2.1c-2.4,0-4.4-2-4.4-4.8
		c0-2.9,2-4.8,4.4-4.8C-130.6,430.6-130.2,434.6-130.2,434.6"/>
</g>
</svg>
